<svg width="182" height="42" viewBox="0 0 182 42" fill="none" xmlns="http://www.w3.org/2000/svg">
<path d="M42.5019 21L34.9627 28.4502L33.0228 26.5332L37.1672 22.4378H22.7059V36.7282L26.8503 32.6328L28.7902 34.5498L21.251 42L13.7117 34.5498L15.6076 32.6328L19.796 36.7282V22.4378H5.2907L9.47917 26.5332L7.53924 28.4502L0 21L7.53924 13.5498L9.47917 15.4668L5.2907 19.5622H19.796V5.22822L15.6076 9.36722L13.7117 7.45021L21.251 0L28.7902 7.45021L26.8503 9.36722L22.7059 5.22822V19.5622H37.1672L33.0228 15.4668L34.9627 13.5498L42.5019 21Z" fill="#67664D"/>
<path d="M74.9075 6.40457L63.9293 36.1618H58.8591L47.8809 6.40457H51.3639L60.8872 32.6328V32.7199H61.9012L71.4245 6.40457H74.9075Z" fill="#67664D"/>
<path d="M81.4763 6.40457H77.9492V9.89005H81.4763V6.40457Z" fill="#67664D"/>
<path d="M81.2562 14.944H78.1699V36.1618H81.2562V14.944Z" fill="#67664D"/>
<path d="M97.7013 14.944V17.7759H94.5269C91.3965 17.7759 89.6771 19.4751 89.6771 22.5685V36.1618H86.5908V14.944H89.2362L89.6771 17.0788H90.0298L90.0739 17.0353C90.9116 15.8589 91.7493 14.944 94.1301 14.944H97.7013Z" fill="#67664D"/>
<path d="M103.742 14.944H100.655V36.1618H103.742V14.944Z" fill="#67664D"/>
<path d="M103.963 6.40457H100.436V9.89005H103.963V6.40457Z" fill="#67664D"/>
<path d="M124.949 6.40457V17.9502H124.596L124.552 17.9066C122.7 15.5975 120.54 14.5083 117.674 14.5083C111.942 14.5083 107.798 19.1266 107.798 25.5311C107.798 31.9357 111.986 36.5975 117.718 36.5975C120.54 36.5975 122.744 35.5083 124.596 33.1992L124.64 33.1556H124.993L125.434 36.1618H128.079V6.40457H124.949ZM117.938 33.7656C113.926 33.7656 110.928 30.2365 110.928 25.5311C110.928 20.8257 113.926 17.2967 117.938 17.2967C121.95 17.2967 124.949 20.8257 124.949 25.5311C124.949 30.2365 121.95 33.7656 117.938 33.7656Z" fill="#67664D"/>
<path d="M136.677 6.40457H133.149V9.89005H136.677V6.40457Z" fill="#67664D"/>
<path d="M136.456 14.944H133.37V36.1618H136.456V14.944Z" fill="#67664D"/>
<path d="M182 23.3963V36.1618H178.913V23.3963C178.913 19.9979 176.312 17.3403 173.005 17.3403C169.566 17.3403 166.657 20.1286 166.657 23.3963V36.1618H163.57V14.944H166.216L166.657 17.2967H166.965L167.009 17.2531C167.494 16.6867 167.979 16.251 168.596 15.9025C170.096 14.944 171.683 14.5083 173.446 14.5083C178.472 14.5083 182 18.1681 182 23.3963Z" fill="#67664D"/>
<path d="M149.815 14.5083C144.26 14.5083 141.482 17.8631 141.262 21H144.348C144.613 19.1701 146.376 17.3838 149.815 17.3838C153.166 17.3838 155.106 19.3008 155.106 22.612V23.3527H149.198C143.598 23.3527 140.645 25.7054 140.645 30.1058C140.645 34.027 143.643 36.6411 148.14 36.6411C150.212 36.6411 151.931 36.1618 153.254 35.1598C153.871 34.7676 154.4 34.2448 154.797 33.6784L154.841 33.6349H155.15L155.591 36.2054H158.236V22.5685C158.148 17.5145 155.018 14.5083 149.815 14.5083ZM155.062 27.056C155.062 31.195 152.372 33.7656 148.051 33.7656C145.274 33.7656 143.643 32.3714 143.643 30.0622C143.643 27.5788 145.627 26.1411 149.11 26.1411H155.018V27.056H155.062Z" fill="#67664D"/>
</svg>
