<svg width="75" height="71" viewBox="0 0 75 71" fill="none" xmlns="http://www.w3.org/2000/svg">
<path d="M61.5418 22.7599L57.9333 26.1752L65.0907 32.9508H40.1928V9.38156L47.3501 16.1572L50.9586 12.7412L37.4996 0L24.0414 12.7412L27.6499 16.1572L34.8072 9.38156V32.9508H9.90932L17.0667 26.1752L13.4582 22.7599L0 35.5004L13.4582 48.2408L17.0667 44.8248L9.9101 38.0492H34.8072V61.6192L27.6499 54.8443L24.0414 58.2596L37.4996 71L50.9586 58.2596L47.3501 54.8443L40.1928 61.6192V38.0492H65.0907L57.9333 44.8248L61.5418 48.2408L75 35.5004L61.5418 22.7599Z" fill="#67664D"/>
</svg>
